<svg width="1311" height="230" viewBox="0 0 1311 230" fill="none" xmlns="http://www.w3.org/2000/svg">
<path d="M186.921 129.75L155.282 124.042C158.839 111.304 164.96 101.874 173.645 95.7534C182.33 89.6324 195.234 86.5719 212.356 86.5719C227.907 86.5719 239.487 88.433 247.097 92.1552C254.707 95.7948 260.042 100.468 263.102 106.176C266.246 111.8 267.817 122.181 267.817 137.318L267.445 178.015C267.445 189.595 267.983 198.156 269.058 203.698C270.216 209.157 272.325 215.03 275.386 221.317H240.893C239.983 219.001 238.867 215.568 237.543 211.019C236.964 208.951 236.55 207.586 236.302 206.924C230.347 212.714 223.978 217.057 217.195 219.952C210.412 222.847 203.174 224.294 195.482 224.294C181.916 224.294 171.205 220.614 163.347 213.252C155.571 205.89 151.684 196.585 151.684 185.335C151.684 177.891 153.462 171.273 157.019 165.483C160.576 159.61 165.539 155.144 171.908 152.083C178.36 148.94 187.624 146.21 199.7 143.894C215.995 140.834 227.286 137.98 233.573 135.333V131.859C233.573 125.159 231.918 120.403 228.61 117.59C225.301 114.695 219.056 113.248 209.874 113.248C203.671 113.248 198.832 114.489 195.358 116.97C191.884 119.369 189.071 123.629 186.921 129.75ZM233.573 158.039C229.106 159.528 222.034 161.306 212.356 163.374C202.678 165.442 196.35 167.468 193.373 169.454C188.823 172.68 186.548 176.774 186.548 181.737C186.548 186.617 188.368 190.836 192.008 194.393C195.647 197.949 200.279 199.728 205.904 199.728C212.191 199.728 218.187 197.66 223.895 193.524C228.113 190.381 230.884 186.534 232.208 181.985C233.118 179.007 233.573 173.341 233.573 164.987V158.039Z" fill="#053D4E"/>
<path d="M324.251 221.317H289.386V89.5497H321.77V108.285C327.312 99.4343 332.275 93.6028 336.659 90.7904C341.125 87.9781 346.171 86.5719 351.796 86.5719C359.737 86.5719 367.388 88.7639 374.749 93.1478L363.955 123.546C358.082 119.741 352.623 117.839 347.577 117.839C342.697 117.839 338.561 119.203 335.17 121.933C331.778 124.58 329.09 129.419 327.105 136.45C325.202 143.481 324.251 158.204 324.251 180.62V221.317Z" fill="#053D4E"/>
<path d="M499.3 221.317H466.917V201.961C461.54 209.488 455.171 215.113 447.809 218.835C440.53 222.475 433.169 224.294 425.724 224.294C410.587 224.294 397.601 218.215 386.765 206.056C376.012 193.814 370.635 176.774 370.635 154.937C370.635 132.603 375.888 115.647 386.393 104.066C396.898 92.4034 410.174 86.5719 426.221 86.5719C440.944 86.5719 453.682 92.6929 464.435 104.935V39.4236H499.3V221.317ZM406.245 152.579C406.245 166.641 408.188 176.815 412.076 183.102C417.701 192.201 425.559 196.75 435.65 196.75C443.674 196.75 450.498 193.359 456.122 186.576C461.747 179.71 464.56 169.495 464.56 155.929C464.56 140.792 461.83 129.915 456.371 123.298C450.911 116.598 443.922 113.248 435.402 113.248C427.13 113.248 420.182 116.557 414.558 123.174C409.016 129.708 406.245 139.51 406.245 152.579Z" fill="#053D4E"/>
<path d="M548.414 129.75L516.775 124.042C520.332 111.304 526.453 101.874 535.138 95.7534C543.823 89.6324 556.727 86.5719 573.849 86.5719C589.4 86.5719 600.98 88.433 608.59 92.1552C616.2 95.7948 621.535 100.468 624.596 106.176C627.739 111.8 629.31 122.181 629.31 137.318L628.938 178.015C628.938 189.595 629.476 198.156 630.551 203.698C631.709 209.157 633.819 215.03 636.879 221.317H602.386C601.476 219.001 600.36 215.568 599.036 211.019C598.457 208.951 598.044 207.586 597.796 206.924C591.84 212.714 585.471 217.057 578.688 219.952C571.905 222.847 564.668 224.294 556.975 224.294C543.41 224.294 532.698 220.614 524.84 213.252C517.064 205.89 513.177 196.585 513.177 185.335C513.177 177.891 514.955 171.273 518.512 165.483C522.069 159.61 527.032 155.144 533.401 152.083C539.853 148.94 549.117 146.21 561.194 143.894C577.489 140.834 588.78 137.98 595.066 135.333V131.859C595.066 125.159 593.412 120.403 590.103 117.59C586.794 114.695 580.549 113.248 571.368 113.248C565.164 113.248 560.325 114.489 556.851 116.97C553.377 119.369 550.565 123.629 548.414 129.75ZM595.066 158.039C590.599 159.528 583.527 161.306 573.849 163.374C564.171 165.442 557.844 167.468 554.866 169.454C550.316 172.68 548.042 176.774 548.042 181.737C548.042 186.617 549.861 190.836 553.501 194.393C557.141 197.949 561.773 199.728 567.397 199.728C573.684 199.728 579.681 197.66 585.388 193.524C589.607 190.381 592.378 186.534 593.701 181.985C594.611 179.007 595.066 173.341 595.066 164.987V158.039Z" fill="#053D4E"/>
<path d="M676.935 221.317L646.736 131.859L669.118 89.5497L693.809 175.905L716.515 89.5497H750.139L772.1 175.905L797.287 89.5497H831.656L789.347 221.317H755.846L733.141 136.574L710.807 221.317H676.935Z" fill="#053D4E"/>
<path d="M830.643 153.572C830.643 141.992 833.497 130.784 839.205 119.948C844.912 109.112 852.977 100.84 863.399 95.133C873.904 89.4256 885.608 86.5719 898.512 86.5719C918.447 86.5719 934.783 93.0651 947.522 106.052C960.26 118.955 966.629 135.292 966.629 155.061C966.629 174.996 960.177 191.539 947.273 204.691C934.452 217.76 918.281 224.294 898.76 224.294C886.684 224.294 875.145 221.565 864.144 216.106C853.225 210.646 844.912 202.664 839.205 192.159C833.497 181.572 830.643 168.709 830.643 153.572ZM866.377 155.433C866.377 168.502 869.479 178.511 875.682 185.459C881.886 192.407 889.537 195.881 898.636 195.881C907.735 195.881 915.345 192.407 921.466 185.459C927.67 178.511 930.772 168.42 930.772 155.185C930.772 142.281 927.67 132.355 921.466 125.407C915.345 118.459 907.735 114.985 898.636 114.985C889.537 114.985 881.886 118.459 875.682 125.407C869.479 132.355 866.377 142.364 866.377 155.433Z" fill="#053D4E"/>
<path d="M1015.99 221.317H981.126V89.5497H1013.51V108.285C1019.05 99.4343 1024.01 93.6028 1028.4 90.7904C1032.86 87.9781 1037.91 86.5719 1043.54 86.5719C1051.48 86.5719 1059.13 88.7639 1066.49 93.1478L1055.69 123.546C1049.82 119.741 1044.36 117.839 1039.32 117.839C1034.44 117.839 1030.3 119.203 1026.91 121.933C1023.52 124.58 1020.83 129.419 1018.84 136.45C1016.94 143.481 1015.99 158.204 1015.99 180.62V221.317Z" fill="#053D4E"/>
<path d="M1068.95 221.317V39.4236H1103.82V135.953L1144.64 89.5497H1187.57L1142.53 137.691L1190.79 221.317H1153.2L1120.07 162.133L1103.82 179.131V221.317H1068.95Z" fill="#053D4E"/>
<path d="M1187.92 183.722L1222.91 178.387C1224.4 185.17 1227.42 190.339 1231.96 193.896C1236.51 197.37 1242.88 199.107 1251.07 199.107C1260.09 199.107 1266.87 197.453 1271.42 194.144C1274.48 191.828 1276.01 188.726 1276.01 184.839C1276.01 182.192 1275.18 180 1273.53 178.263C1271.79 176.609 1267.9 175.078 1261.87 173.672C1233.74 167.468 1215.92 161.802 1208.39 156.674C1197.97 149.56 1192.76 139.676 1192.76 127.02C1192.76 115.605 1197.27 106.01 1206.28 98.2349C1215.3 90.4596 1229.28 86.5719 1248.22 86.5719C1266.25 86.5719 1279.65 89.5083 1288.42 95.3812C1297.19 101.254 1303.22 109.939 1306.53 121.437L1273.65 127.516C1272.25 122.388 1269.56 118.459 1265.59 115.729C1261.7 113 1256.12 111.635 1248.84 111.635C1239.66 111.635 1233.08 112.917 1229.11 115.481C1226.46 117.301 1225.14 119.658 1225.14 122.553C1225.14 125.035 1226.3 127.144 1228.61 128.881C1231.76 131.197 1242.59 134.465 1261.12 138.683C1279.73 142.902 1292.72 148.071 1300.08 154.192C1307.36 160.396 1311 169.04 1311 180.124C1311 192.201 1305.95 202.581 1295.86 211.267C1285.77 219.952 1270.84 224.294 1251.07 224.294C1233.12 224.294 1218.9 220.655 1208.39 213.376C1197.97 206.097 1191.14 196.212 1187.92 183.722Z" fill="#053D4E"/>
<path d="M55.9088 229.514H0L119.505 0H175.414L55.9088 229.514Z" fill="#F15D79"/>
</svg>
